<mxfile host="app.diagrams.net" modified="2024-01-25T01:43:06.222Z" agent="Mozilla/5.0 (Windows NT 10.0; Win64; x64) AppleWebKit/537.36 (KHTML, like Gecko) Chrome/120.0.0.0 Safari/537.36" etag="kLyRuSj0pNq8uvIEmTdU" version="23.0.1" type="device">
  <diagram name="Page-1" id="0FeqOTOzGFtv3j2xpiWB">
    <mxGraphModel dx="866" dy="496" grid="1" gridSize="10" guides="1" tooltips="1" connect="1" arrows="1" fold="1" page="1" pageScale="1" pageWidth="850" pageHeight="1100" math="0" shadow="0">
      <root>
        <mxCell id="0" />
        <mxCell id="1" parent="0" />
        <mxCell id="LyLzA6kwfRRB6KR0NoK2-1" value="AWS Account" style="points=[[0,0],[0.25,0],[0.5,0],[0.75,0],[1,0],[1,0.25],[1,0.5],[1,0.75],[1,1],[0.75,1],[0.5,1],[0.25,1],[0,1],[0,0.75],[0,0.5],[0,0.25]];outlineConnect=0;html=1;whiteSpace=wrap;fontSize=12;fontStyle=0;container=1;pointerEvents=0;collapsible=0;recursiveResize=0;shape=mxgraph.aws4.group;grIcon=mxgraph.aws4.group_account;strokeColor=#BAC8D3;fillColor=#09555B;verticalAlign=top;align=left;spacingLeft=30;dashed=0;labelBackgroundColor=none;fontColor=#FFFFFF;" parent="1" vertex="1">
          <mxGeometry x="100" y="47" width="740" height="430" as="geometry" />
        </mxCell>
        <mxCell id="LyLzA6kwfRRB6KR0NoK2-17" value="&lt;b&gt;&lt;font face=&quot;Tahoma&quot;&gt;WAF&lt;/font&gt;&lt;/b&gt;" style="sketch=0;points=[[0,0,0],[0.25,0,0],[0.5,0,0],[0.75,0,0],[1,0,0],[0,1,0],[0.25,1,0],[0.5,1,0],[0.75,1,0],[1,1,0],[0,0.25,0],[0,0.5,0],[0,0.75,0],[1,0.25,0],[1,0.5,0],[1,0.75,0]];outlineConnect=0;fontColor=#EEEEEE;fillColor=#09555B;strokeColor=#BAC8D3;dashed=0;verticalLabelPosition=bottom;verticalAlign=top;align=center;html=1;fontSize=12;fontStyle=0;aspect=fixed;shape=mxgraph.aws4.resourceIcon;resIcon=mxgraph.aws4.waf;labelBackgroundColor=none;" parent="LyLzA6kwfRRB6KR0NoK2-1" vertex="1">
          <mxGeometry x="20" y="310" width="56" height="56" as="geometry" />
        </mxCell>
        <mxCell id="LyLzA6kwfRRB6KR0NoK2-26" value="" style="edgeStyle=orthogonalEdgeStyle;rounded=0;orthogonalLoop=1;jettySize=auto;html=1;strokeColor=#0B4D6A;fontColor=default;dashed=1;dashPattern=1 1;labelBackgroundColor=none;" parent="LyLzA6kwfRRB6KR0NoK2-1" source="LyLzA6kwfRRB6KR0NoK2-16" target="LyLzA6kwfRRB6KR0NoK2-18" edge="1">
          <mxGeometry relative="1" as="geometry" />
        </mxCell>
        <mxCell id="LyLzA6kwfRRB6KR0NoK2-16" value="&lt;b&gt;&lt;font face=&quot;Tahoma&quot;&gt;Route 53&lt;/font&gt;&lt;/b&gt;" style="sketch=0;points=[[0,0,0],[0.25,0,0],[0.5,0,0],[0.75,0,0],[1,0,0],[0,1,0],[0.25,1,0],[0.5,1,0],[0.75,1,0],[1,1,0],[0,0.25,0],[0,0.5,0],[0,0.75,0],[1,0.25,0],[1,0.5,0],[1,0.75,0]];outlineConnect=0;fontColor=#EEEEEE;fillColor=#09555B;strokeColor=#BAC8D3;dashed=0;verticalLabelPosition=bottom;verticalAlign=top;align=center;html=1;fontSize=12;fontStyle=0;aspect=fixed;shape=mxgraph.aws4.resourceIcon;resIcon=mxgraph.aws4.route_53;labelBackgroundColor=none;" parent="LyLzA6kwfRRB6KR0NoK2-1" vertex="1">
          <mxGeometry x="20" y="50" width="56" height="56" as="geometry" />
        </mxCell>
        <mxCell id="LyLzA6kwfRRB6KR0NoK2-42" style="edgeStyle=orthogonalEdgeStyle;rounded=0;orthogonalLoop=1;jettySize=auto;html=1;strokeColor=#0B4D6A;" parent="LyLzA6kwfRRB6KR0NoK2-1" source="LyLzA6kwfRRB6KR0NoK2-18" target="LyLzA6kwfRRB6KR0NoK2-29" edge="1">
          <mxGeometry relative="1" as="geometry" />
        </mxCell>
        <mxCell id="LyLzA6kwfRRB6KR0NoK2-44" style="edgeStyle=orthogonalEdgeStyle;rounded=0;orthogonalLoop=1;jettySize=auto;html=1;strokeColor=#FFFF33;dashed=1;dashPattern=1 1;exitX=0.762;exitY=0.795;exitDx=0;exitDy=0;exitPerimeter=0;" parent="LyLzA6kwfRRB6KR0NoK2-1" source="LyLzA6kwfRRB6KR0NoK2-18" target="LyLzA6kwfRRB6KR0NoK2-29" edge="1">
          <mxGeometry relative="1" as="geometry" />
        </mxCell>
        <mxCell id="LyLzA6kwfRRB6KR0NoK2-101" style="edgeStyle=orthogonalEdgeStyle;rounded=0;orthogonalLoop=1;jettySize=auto;html=1;strokeColor=#0B4D6A;" parent="LyLzA6kwfRRB6KR0NoK2-1" source="LyLzA6kwfRRB6KR0NoK2-18" target="LyLzA6kwfRRB6KR0NoK2-52" edge="1">
          <mxGeometry relative="1" as="geometry" />
        </mxCell>
        <mxCell id="LyLzA6kwfRRB6KR0NoK2-102" style="edgeStyle=orthogonalEdgeStyle;rounded=0;orthogonalLoop=1;jettySize=auto;html=1;strokeColor=#0B4D6A;" parent="LyLzA6kwfRRB6KR0NoK2-1" source="LyLzA6kwfRRB6KR0NoK2-18" target="LyLzA6kwfRRB6KR0NoK2-47" edge="1">
          <mxGeometry relative="1" as="geometry" />
        </mxCell>
        <mxCell id="LyLzA6kwfRRB6KR0NoK2-103" style="edgeStyle=orthogonalEdgeStyle;rounded=0;orthogonalLoop=1;jettySize=auto;html=1;strokeColor=#FFFF66;dashed=1;dashPattern=1 1;endArrow=classic;endFill=1;strokeWidth=1;" parent="LyLzA6kwfRRB6KR0NoK2-1" source="O4NRP2WxMaC70PkJEQv2-1" edge="1">
          <mxGeometry relative="1" as="geometry">
            <mxPoint x="230" y="215" as="targetPoint" />
          </mxGeometry>
        </mxCell>
        <mxCell id="LyLzA6kwfRRB6KR0NoK2-18" value="&lt;b&gt;&lt;font face=&quot;Tahoma&quot;&gt;Cloudfront&lt;/font&gt;&lt;/b&gt;" style="sketch=0;points=[[0,0,0],[0.25,0,0],[0.5,0,0],[0.75,0,0],[1,0,0],[0,1,0],[0.25,1,0],[0.5,1,0],[0.75,1,0],[1,1,0],[0,0.25,0],[0,0.5,0],[0,0.75,0],[1,0.25,0],[1,0.5,0],[1,0.75,0]];outlineConnect=0;fontColor=#EEEEEE;fillColor=#09555B;strokeColor=#BAC8D3;dashed=0;verticalLabelPosition=bottom;verticalAlign=top;align=center;html=1;fontSize=12;fontStyle=0;aspect=fixed;shape=mxgraph.aws4.resourceIcon;resIcon=mxgraph.aws4.cloudfront;labelBackgroundColor=none;" parent="LyLzA6kwfRRB6KR0NoK2-1" vertex="1">
          <mxGeometry x="20" y="185" width="56" height="56" as="geometry" />
        </mxCell>
        <mxCell id="LyLzA6kwfRRB6KR0NoK2-22" style="edgeStyle=orthogonalEdgeStyle;rounded=0;orthogonalLoop=1;jettySize=auto;html=1;entryX=0.5;entryY=0;entryDx=0;entryDy=0;entryPerimeter=0;strokeColor=#0B4D6A;fontColor=default;dashed=1;dashPattern=1 1;labelBackgroundColor=none;" parent="LyLzA6kwfRRB6KR0NoK2-1" source="LyLzA6kwfRRB6KR0NoK2-16" target="LyLzA6kwfRRB6KR0NoK2-18" edge="1">
          <mxGeometry relative="1" as="geometry" />
        </mxCell>
        <mxCell id="LyLzA6kwfRRB6KR0NoK2-29" value="&lt;font style=&quot;font-size: 11px;&quot; face=&quot;Tahoma&quot;&gt;Amazon &lt;br&gt;S3&lt;/font&gt;" style="sketch=0;points=[[0,0,0],[0.25,0,0],[0.5,0,0],[0.75,0,0],[1,0,0],[0,1,0],[0.25,1,0],[0.5,1,0],[0.75,1,0],[1,1,0],[0,0.25,0],[0,0.5,0],[0,0.75,0],[1,0.25,0],[1,0.5,0],[1,0.75,0]];outlineConnect=0;fontColor=#EEEEEE;fillColor=#09555B;strokeColor=#BAC8D3;dashed=0;verticalLabelPosition=bottom;verticalAlign=top;align=center;html=1;fontSize=12;fontStyle=1;aspect=fixed;shape=mxgraph.aws4.resourceIcon;resIcon=mxgraph.aws4.s3;" parent="LyLzA6kwfRRB6KR0NoK2-1" vertex="1">
          <mxGeometry x="100" y="314" width="52" height="52" as="geometry" />
        </mxCell>
        <mxCell id="LyLzA6kwfRRB6KR0NoK2-38" style="edgeStyle=orthogonalEdgeStyle;rounded=0;orthogonalLoop=1;jettySize=auto;html=1;entryX=0.5;entryY=0;entryDx=0;entryDy=0;entryPerimeter=0;strokeColor=#FFFF33;dashed=1;dashPattern=1 1;" parent="LyLzA6kwfRRB6KR0NoK2-1" source="LyLzA6kwfRRB6KR0NoK2-16" target="LyLzA6kwfRRB6KR0NoK2-18" edge="1">
          <mxGeometry relative="1" as="geometry" />
        </mxCell>
        <mxCell id="LyLzA6kwfRRB6KR0NoK2-41" style="edgeStyle=orthogonalEdgeStyle;rounded=0;orthogonalLoop=1;jettySize=auto;html=1;entryX=0.5;entryY=0;entryDx=0;entryDy=0;entryPerimeter=0;strokeColor=#FFFF33;dashed=1;dashPattern=1 1;" parent="LyLzA6kwfRRB6KR0NoK2-1" source="LyLzA6kwfRRB6KR0NoK2-18" target="LyLzA6kwfRRB6KR0NoK2-17" edge="1">
          <mxGeometry relative="1" as="geometry" />
        </mxCell>
        <mxCell id="LyLzA6kwfRRB6KR0NoK2-45" value="" style="edgeStyle=orthogonalEdgeStyle;rounded=0;orthogonalLoop=1;jettySize=auto;html=1;strokeColor=none;jumpSize=9;jumpStyle=none;endArrow=classic;endFill=1;curved=0;strokeWidth=8;" parent="LyLzA6kwfRRB6KR0NoK2-1" source="LyLzA6kwfRRB6KR0NoK2-29" target="LyLzA6kwfRRB6KR0NoK2-18" edge="1">
          <mxGeometry relative="1" as="geometry" />
        </mxCell>
        <mxCell id="LyLzA6kwfRRB6KR0NoK2-47" value="&lt;font color=&quot;#66ff66&quot;&gt;VPC&lt;/font&gt;" style="sketch=0;outlineConnect=0;gradientColor=none;html=1;whiteSpace=wrap;fontSize=12;fontStyle=0;shape=mxgraph.aws4.group;grIcon=mxgraph.aws4.group_vpc;strokeColor=#66FF66;fillColor=none;verticalAlign=top;align=left;spacingLeft=30;fontColor=#879196;dashed=1;" parent="LyLzA6kwfRRB6KR0NoK2-1" vertex="1">
          <mxGeometry x="160" y="40" width="440" height="370" as="geometry" />
        </mxCell>
        <mxCell id="LyLzA6kwfRRB6KR0NoK2-52" value="" style="sketch=0;outlineConnect=0;fontColor=#232F3E;gradientColor=none;fillColor=#09555B;strokeColor=#BAC8D3;dashed=0;verticalLabelPosition=bottom;verticalAlign=top;align=center;html=1;fontSize=12;fontStyle=0;aspect=fixed;pointerEvents=1;shape=mxgraph.aws4.network_load_balancer;" parent="LyLzA6kwfRRB6KR0NoK2-1" vertex="1">
          <mxGeometry x="220" y="190" width="66" height="66" as="geometry" />
        </mxCell>
        <mxCell id="LyLzA6kwfRRB6KR0NoK2-60" value="Load &lt;br style=&quot;font-size: 10px;&quot;&gt;Balancer" style="sketch=0;outlineConnect=0;fontColor=#FFFFFF;gradientColor=none;fillColor=#66FF66;strokeColor=none;dashed=0;verticalLabelPosition=bottom;verticalAlign=top;align=center;html=1;fontSize=10;fontStyle=1;aspect=fixed;pointerEvents=1;shape=mxgraph.aws4.application_load_balancer;" parent="LyLzA6kwfRRB6KR0NoK2-1" vertex="1">
          <mxGeometry x="231" y="198" width="47" height="47" as="geometry" />
        </mxCell>
        <mxCell id="LyLzA6kwfRRB6KR0NoK2-70" value="Public Subnet" style="shape=mxgraph.ibm.box;prType=subnet;fontStyle=0;verticalAlign=top;align=left;spacingLeft=32;spacingTop=4;fillColor=#09555B;rounded=0;whiteSpace=wrap;html=1;strokeColor=#66FF66;strokeWidth=1;dashed=0;container=1;spacing=-4;collapsible=0;expand=0;recursiveResize=0;fontColor=#FFFFFF;" parent="LyLzA6kwfRRB6KR0NoK2-1" vertex="1">
          <mxGeometry x="202.5" y="75" width="107.5" height="110" as="geometry" />
        </mxCell>
        <mxCell id="LyLzA6kwfRRB6KR0NoK2-73" value="NAT gateway" style="sketch=0;outlineConnect=0;fontColor=#FFFFFF;gradientColor=none;strokeColor=#BAC8D3;fillColor=#09555B;dashed=0;verticalLabelPosition=bottom;verticalAlign=top;align=center;html=1;fontSize=11;fontStyle=1;aspect=fixed;shape=mxgraph.aws4.resourceIcon;resIcon=mxgraph.aws4.nat_gateway;fontFamily=Tahoma;" parent="LyLzA6kwfRRB6KR0NoK2-70" vertex="1">
          <mxGeometry x="27.5" y="27" width="56" height="56" as="geometry" />
        </mxCell>
        <mxCell id="LyLzA6kwfRRB6KR0NoK2-74" value="Public Subnet" style="shape=mxgraph.ibm.box;prType=subnet;fontStyle=0;verticalAlign=top;align=left;spacingLeft=32;spacingTop=4;fillColor=#09555B;rounded=0;whiteSpace=wrap;html=1;strokeColor=#66FF66;strokeWidth=1;dashed=0;container=1;spacing=-4;collapsible=0;expand=0;recursiveResize=0;fontColor=#FFFFFF;" parent="LyLzA6kwfRRB6KR0NoK2-1" vertex="1">
          <mxGeometry x="199.25" y="280" width="107.5" height="120" as="geometry" />
        </mxCell>
        <mxCell id="LyLzA6kwfRRB6KR0NoK2-75" value="NAT gateway" style="sketch=0;outlineConnect=0;fontColor=#FFFFFF;gradientColor=none;strokeColor=#BAC8D3;fillColor=#09555B;dashed=0;verticalLabelPosition=bottom;verticalAlign=top;align=center;html=1;fontSize=11;fontStyle=1;aspect=fixed;shape=mxgraph.aws4.resourceIcon;resIcon=mxgraph.aws4.nat_gateway;fontFamily=Tahoma;" parent="LyLzA6kwfRRB6KR0NoK2-74" vertex="1">
          <mxGeometry x="27.5" y="27" width="56" height="56" as="geometry" />
        </mxCell>
        <mxCell id="LyLzA6kwfRRB6KR0NoK2-48" value="&lt;font color=&quot;#ffffff&quot; style=&quot;font-size: 9px;&quot;&gt;EC2 instance&amp;nbsp;&lt;/font&gt;" style="points=[[0,0],[0.25,0],[0.5,0],[0.75,0],[1,0],[1,0.25],[1,0.5],[1,0.75],[1,1],[0.75,1],[0.5,1],[0.25,1],[0,1],[0,0.75],[0,0.5],[0,0.25]];outlineConnect=0;gradientColor=none;html=1;whiteSpace=wrap;fontSize=12;fontStyle=0;container=1;pointerEvents=0;collapsible=0;recursiveResize=0;shape=mxgraph.aws4.group;grIcon=mxgraph.aws4.group_ec2_instance_contents;strokeColor=#9999FF;fillColor=none;verticalAlign=top;align=left;spacingLeft=30;fontColor=#D86613;dashed=1;dashPattern=1 1;" parent="LyLzA6kwfRRB6KR0NoK2-1" vertex="1">
          <mxGeometry x="320" y="40" width="240" height="370" as="geometry" />
        </mxCell>
        <mxCell id="LyLzA6kwfRRB6KR0NoK2-79" value="Public Subnet" style="shape=mxgraph.ibm.box;prType=subnet;fontStyle=1;verticalAlign=top;align=left;spacingLeft=32;spacingTop=4;fillColor=#09555B;rounded=0;whiteSpace=wrap;html=1;strokeColor=#FF9933;strokeWidth=1;dashed=0;container=1;spacing=-4;collapsible=0;expand=0;recursiveResize=0;fontColor=#FFFFFF;fontFamily=Tahoma;" parent="LyLzA6kwfRRB6KR0NoK2-48" vertex="1">
          <mxGeometry x="15" y="30" width="210" height="120" as="geometry" />
        </mxCell>
        <mxCell id="LyLzA6kwfRRB6KR0NoK2-82" value="&lt;span&gt;&lt;font color=&quot;#ffffff&quot;&gt;EC2&lt;/font&gt;&lt;/span&gt;" style="sketch=0;points=[[0,0,0],[0.25,0,0],[0.5,0,0],[0.75,0,0],[1,0,0],[0,1,0],[0.25,1,0],[0.5,1,0],[0.75,1,0],[1,1,0],[0,0.25,0],[0,0.5,0],[0,0.75,0],[1,0.25,0],[1,0.5,0],[1,0.75,0]];outlineConnect=0;fontColor=#232F3E;fillColor=#09555B;strokeColor=#BAC8D3;dashed=0;verticalLabelPosition=bottom;verticalAlign=top;align=center;html=1;fontSize=12;fontStyle=1;aspect=fixed;shape=mxgraph.aws4.resourceIcon;resIcon=mxgraph.aws4.ec2;fontFamily=Tahoma;" parent="LyLzA6kwfRRB6KR0NoK2-79" vertex="1">
          <mxGeometry x="30" y="33" width="58" height="58" as="geometry" />
        </mxCell>
        <mxCell id="LyLzA6kwfRRB6KR0NoK2-83" value="&lt;span&gt;&lt;font color=&quot;#ffffff&quot;&gt;EC2&lt;/font&gt;&lt;/span&gt;" style="sketch=0;points=[[0,0,0],[0.25,0,0],[0.5,0,0],[0.75,0,0],[1,0,0],[0,1,0],[0.25,1,0],[0.5,1,0],[0.75,1,0],[1,1,0],[0,0.25,0],[0,0.5,0],[0,0.75,0],[1,0.25,0],[1,0.5,0],[1,0.75,0]];outlineConnect=0;fontColor=#232F3E;fillColor=#09555B;strokeColor=#BAC8D3;dashed=0;verticalLabelPosition=bottom;verticalAlign=top;align=center;html=1;fontSize=12;fontStyle=1;aspect=fixed;shape=mxgraph.aws4.resourceIcon;resIcon=mxgraph.aws4.ec2;fontFamily=Tahoma;" parent="LyLzA6kwfRRB6KR0NoK2-79" vertex="1">
          <mxGeometry x="130" y="32" width="58" height="58" as="geometry" />
        </mxCell>
        <mxCell id="LyLzA6kwfRRB6KR0NoK2-120" value="" style="endArrow=classic;startArrow=classic;html=1;rounded=0;strokeColor=#FFFF66;endSize=6;jumpSize=10;dashed=1;dashPattern=1 1;" parent="LyLzA6kwfRRB6KR0NoK2-48" edge="1">
          <mxGeometry width="50" height="50" relative="1" as="geometry">
            <mxPoint x="173.40999999999997" y="234.5" as="sourcePoint" />
            <mxPoint x="173.40999999999997" y="154.5" as="targetPoint" />
            <Array as="points">
              <mxPoint x="173.40999999999997" y="177.5" />
            </Array>
          </mxGeometry>
        </mxCell>
        <mxCell id="LyLzA6kwfRRB6KR0NoK2-84" value="Public Subnet" style="shape=mxgraph.ibm.box;prType=subnet;fontStyle=1;verticalAlign=top;align=left;spacingLeft=32;spacingTop=4;fillColor=#09555B;rounded=0;whiteSpace=wrap;html=1;strokeColor=#FF9933;strokeWidth=1;dashed=0;container=1;spacing=-4;collapsible=0;expand=0;recursiveResize=0;fontColor=#FFFFFF;fontFamily=Tahoma;" parent="LyLzA6kwfRRB6KR0NoK2-1" vertex="1">
          <mxGeometry x="335" y="280" width="210" height="120" as="geometry" />
        </mxCell>
        <mxCell id="LyLzA6kwfRRB6KR0NoK2-85" value="&lt;span&gt;&lt;font color=&quot;#ffffff&quot;&gt;EC2&lt;/font&gt;&lt;/span&gt;" style="sketch=0;points=[[0,0,0],[0.25,0,0],[0.5,0,0],[0.75,0,0],[1,0,0],[0,1,0],[0.25,1,0],[0.5,1,0],[0.75,1,0],[1,1,0],[0,0.25,0],[0,0.5,0],[0,0.75,0],[1,0.25,0],[1,0.5,0],[1,0.75,0]];outlineConnect=0;fontColor=#232F3E;fillColor=#09555B;strokeColor=#BAC8D3;dashed=0;verticalLabelPosition=bottom;verticalAlign=top;align=center;html=1;fontSize=12;fontStyle=1;aspect=fixed;shape=mxgraph.aws4.resourceIcon;resIcon=mxgraph.aws4.ec2;fontFamily=Tahoma;" parent="LyLzA6kwfRRB6KR0NoK2-84" vertex="1">
          <mxGeometry x="30" y="33" width="58" height="58" as="geometry" />
        </mxCell>
        <mxCell id="LyLzA6kwfRRB6KR0NoK2-86" value="&lt;span&gt;&lt;font color=&quot;#ffffff&quot;&gt;EC2&lt;/font&gt;&lt;/span&gt;" style="sketch=0;points=[[0,0,0],[0.25,0,0],[0.5,0,0],[0.75,0,0],[1,0,0],[0,1,0],[0.25,1,0],[0.5,1,0],[0.75,1,0],[1,1,0],[0,0.25,0],[0,0.5,0],[0,0.75,0],[1,0.25,0],[1,0.5,0],[1,0.75,0]];outlineConnect=0;fontColor=#232F3E;fillColor=#09555B;strokeColor=#BAC8D3;dashed=0;verticalLabelPosition=bottom;verticalAlign=top;align=center;html=1;fontSize=12;fontStyle=1;aspect=fixed;shape=mxgraph.aws4.resourceIcon;resIcon=mxgraph.aws4.ec2;fontFamily=Tahoma;" parent="LyLzA6kwfRRB6KR0NoK2-84" vertex="1">
          <mxGeometry x="130" y="32" width="58" height="58" as="geometry" />
        </mxCell>
        <mxCell id="LyLzA6kwfRRB6KR0NoK2-88" value="" style="fillColor=none;strokeColor=#d4d7d9;dashed=1;verticalAlign=top;fontStyle=0;fontColor=#147EBA;whiteSpace=wrap;html=1;" parent="LyLzA6kwfRRB6KR0NoK2-84" vertex="1">
          <mxGeometry x="-145" width="360" height="120" as="geometry" />
        </mxCell>
        <mxCell id="LyLzA6kwfRRB6KR0NoK2-89" value="&lt;b&gt;&lt;font color=&quot;#ffff66&quot; face=&quot;Tahoma&quot;&gt;AZ - B&lt;/font&gt;&lt;/b&gt;" style="text;strokeColor=none;align=center;fillColor=none;html=1;verticalAlign=middle;whiteSpace=wrap;rounded=0;fontColor=#EEEEEE;" parent="LyLzA6kwfRRB6KR0NoK2-84" vertex="1">
          <mxGeometry x="135" y="3" width="60" height="30" as="geometry" />
        </mxCell>
        <mxCell id="LyLzA6kwfRRB6KR0NoK2-87" value="" style="fillColor=none;strokeColor=#d4d7d9;dashed=1;verticalAlign=top;fontStyle=0;fontColor=#147EBA;whiteSpace=wrap;html=1;" parent="LyLzA6kwfRRB6KR0NoK2-1" vertex="1">
          <mxGeometry x="190" y="70" width="360" height="120" as="geometry" />
        </mxCell>
        <mxCell id="LyLzA6kwfRRB6KR0NoK2-90" value="&lt;b&gt;&lt;font color=&quot;#ffff66&quot; face=&quot;Tahoma&quot;&gt;AZ - A&lt;/font&gt;&lt;/b&gt;" style="text;strokeColor=none;align=center;fillColor=none;html=1;verticalAlign=middle;whiteSpace=wrap;rounded=0;fontColor=#EEEEEE;" parent="LyLzA6kwfRRB6KR0NoK2-1" vertex="1">
          <mxGeometry x="480" y="70" width="60" height="30" as="geometry" />
        </mxCell>
        <mxCell id="LyLzA6kwfRRB6KR0NoK2-91" value="VPC &lt;br style=&quot;font-size: 11px;&quot;&gt;Endpoint" style="sketch=0;outlineConnect=0;fontColor=#FFFFFF;gradientColor=none;fillColor=#8C4FFF;strokeColor=none;dashed=0;verticalLabelPosition=bottom;verticalAlign=top;align=center;html=1;fontSize=11;fontStyle=1;aspect=fixed;pointerEvents=1;shape=mxgraph.aws4.endpoints;fontFamily=Tahoma;" parent="LyLzA6kwfRRB6KR0NoK2-1" vertex="1">
          <mxGeometry x="580" y="200" width="49" height="49" as="geometry" />
        </mxCell>
        <mxCell id="LyLzA6kwfRRB6KR0NoK2-92" value="CloudWatch" style="sketch=0;points=[[0,0,0],[0.25,0,0],[0.5,0,0],[0.75,0,0],[1,0,0],[0,1,0],[0.25,1,0],[0.5,1,0],[0.75,1,0],[1,1,0],[0,0.25,0],[0,0.5,0],[0,0.75,0],[1,0.25,0],[1,0.5,0],[1,0.75,0]];points=[[0,0,0],[0.25,0,0],[0.5,0,0],[0.75,0,0],[1,0,0],[0,1,0],[0.25,1,0],[0.5,1,0],[0.75,1,0],[1,1,0],[0,0.25,0],[0,0.5,0],[0,0.75,0],[1,0.25,0],[1,0.5,0],[1,0.75,0]];outlineConnect=0;fontColor=#FFFFFF;fillColor=#09555B;strokeColor=#BAC8D3;dashed=0;verticalLabelPosition=bottom;verticalAlign=top;align=center;html=1;fontSize=10;fontStyle=1;aspect=fixed;shape=mxgraph.aws4.resourceIcon;resIcon=mxgraph.aws4.cloudwatch_2;fontFamily=Tahoma;" parent="LyLzA6kwfRRB6KR0NoK2-1" vertex="1">
          <mxGeometry x="650" y="33" width="58" height="58" as="geometry" />
        </mxCell>
        <mxCell id="LyLzA6kwfRRB6KR0NoK2-94" value="DynamoDB" style="sketch=0;points=[[0,0,0],[0.25,0,0],[0.5,0,0],[0.75,0,0],[1,0,0],[0,1,0],[0.25,1,0],[0.5,1,0],[0.75,1,0],[1,1,0],[0,0.25,0],[0,0.5,0],[0,0.75,0],[1,0.25,0],[1,0.5,0],[1,0.75,0]];outlineConnect=0;fontColor=#FFFFFF;fillColor=#09555B;strokeColor=#BAC8D3;dashed=0;verticalLabelPosition=bottom;verticalAlign=top;align=center;html=1;fontSize=11;fontStyle=1;aspect=fixed;shape=mxgraph.aws4.resourceIcon;resIcon=mxgraph.aws4.dynamodb;fontFamily=Tahoma;" parent="LyLzA6kwfRRB6KR0NoK2-1" vertex="1">
          <mxGeometry x="673.5" y="199.5" width="47" height="47" as="geometry" />
        </mxCell>
        <mxCell id="LyLzA6kwfRRB6KR0NoK2-117" value="" style="endArrow=classic;startArrow=classic;html=1;rounded=0;strokeColor=#FFFF66;endSize=6;jumpSize=10;dashed=1;dashPattern=1 1;" parent="LyLzA6kwfRRB6KR0NoK2-1" edge="1">
          <mxGeometry width="50" height="50" relative="1" as="geometry">
            <mxPoint x="393" y="273" as="sourcePoint" />
            <mxPoint x="393" y="193" as="targetPoint" />
            <Array as="points">
              <mxPoint x="393" y="216" />
            </Array>
          </mxGeometry>
        </mxCell>
        <mxCell id="LyLzA6kwfRRB6KR0NoK2-130" value="" style="endArrow=classic;html=1;rounded=0;strokeColor=#FFFF66;dashed=1;dashPattern=1 1;" parent="LyLzA6kwfRRB6KR0NoK2-1" edge="1">
          <mxGeometry width="50" height="50" relative="1" as="geometry">
            <mxPoint x="629" y="233.91000000000003" as="sourcePoint" />
            <mxPoint x="679" y="233.91000000000003" as="targetPoint" />
          </mxGeometry>
        </mxCell>
        <mxCell id="LyLzA6kwfRRB6KR0NoK2-131" value="" style="endArrow=classic;html=1;rounded=0;strokeColor=#FFFF66;dashed=1;dashPattern=1 1;" parent="LyLzA6kwfRRB6KR0NoK2-1" edge="1">
          <mxGeometry width="50" height="50" relative="1" as="geometry">
            <mxPoint x="629" y="243.82000000000005" as="sourcePoint" />
            <mxPoint x="679" y="243.82000000000005" as="targetPoint" />
          </mxGeometry>
        </mxCell>
        <mxCell id="LyLzA6kwfRRB6KR0NoK2-132" value="" style="endArrow=classic;html=1;rounded=0;strokeColor=#FFFF66;dashed=1;dashPattern=1 1;" parent="LyLzA6kwfRRB6KR0NoK2-1" edge="1">
          <mxGeometry width="50" height="50" relative="1" as="geometry">
            <mxPoint x="629" y="214.41000000000003" as="sourcePoint" />
            <mxPoint x="679" y="214.41000000000003" as="targetPoint" />
          </mxGeometry>
        </mxCell>
        <mxCell id="LyLzA6kwfRRB6KR0NoK2-135" value="" style="endArrow=none;dashed=1;html=1;dashPattern=1 3;strokeWidth=2;rounded=0;strokeColor=#0B4D6A;edgeStyle=orthogonalEdgeStyle;entryX=1;entryY=0.75;entryDx=0;entryDy=0;" parent="LyLzA6kwfRRB6KR0NoK2-1" target="LyLzA6kwfRRB6KR0NoK2-90" edge="1">
          <mxGeometry width="50" height="50" relative="1" as="geometry">
            <mxPoint x="420" y="133" as="sourcePoint" />
            <mxPoint x="470" y="83" as="targetPoint" />
            <Array as="points">
              <mxPoint x="550" y="134" />
              <mxPoint x="550" y="92" />
            </Array>
          </mxGeometry>
        </mxCell>
        <mxCell id="O4NRP2WxMaC70PkJEQv2-1" value="&lt;b style=&quot;font-size: 9px;&quot;&gt;&lt;font color=&quot;#ffffff&quot; face=&quot;Tahoma&quot; style=&quot;font-size: 9px;&quot;&gt;Internet&lt;br&gt;Gateway&lt;/font&gt;&lt;/b&gt;" style="sketch=0;outlineConnect=0;fontColor=#232F3E;gradientColor=none;fillColor=#8C4FFF;strokeColor=none;dashed=0;verticalLabelPosition=bottom;verticalAlign=top;align=center;html=1;fontSize=12;fontStyle=0;aspect=fixed;pointerEvents=1;shape=mxgraph.aws4.internet_gateway;" vertex="1" parent="LyLzA6kwfRRB6KR0NoK2-1">
          <mxGeometry x="170" y="195" width="40" height="40" as="geometry" />
        </mxCell>
        <mxCell id="O4NRP2WxMaC70PkJEQv2-2" value="" style="edgeStyle=orthogonalEdgeStyle;rounded=0;orthogonalLoop=1;jettySize=auto;html=1;strokeColor=#FFFF66;dashed=1;dashPattern=1 1;endArrow=classic;endFill=1;strokeWidth=1;" edge="1" parent="LyLzA6kwfRRB6KR0NoK2-1" source="LyLzA6kwfRRB6KR0NoK2-18" target="O4NRP2WxMaC70PkJEQv2-1">
          <mxGeometry relative="1" as="geometry">
            <mxPoint x="330" y="262" as="targetPoint" />
            <mxPoint x="180" y="262" as="sourcePoint" />
          </mxGeometry>
        </mxCell>
        <mxCell id="LyLzA6kwfRRB6KR0NoK2-28" value="&lt;font color=&quot;#2db9af&quot;&gt;Region&lt;/font&gt;" style="sketch=0;outlineConnect=0;html=1;whiteSpace=wrap;fontSize=12;fontStyle=0;shape=mxgraph.aws4.group;grIcon=mxgraph.aws4.group_region;strokeColor=#BAC8D3;fillColor=none;verticalAlign=top;align=left;spacingLeft=30;fontColor=#EEEEEE;dashed=1;labelBackgroundColor=none;" parent="LyLzA6kwfRRB6KR0NoK2-1" vertex="1">
          <mxGeometry x="90" y="21.5" width="640" height="400" as="geometry" />
        </mxCell>
        <mxCell id="O4NRP2WxMaC70PkJEQv2-5" value="" style="endArrow=classic;html=1;rounded=0;strokeColor=#FFFF66;dashed=1;dashPattern=1 1;" edge="1" parent="LyLzA6kwfRRB6KR0NoK2-1">
          <mxGeometry width="50" height="50" relative="1" as="geometry">
            <mxPoint x="628" y="222.5" as="sourcePoint" />
            <mxPoint x="678" y="222.5" as="targetPoint" />
          </mxGeometry>
        </mxCell>
        <mxCell id="LyLzA6kwfRRB6KR0NoK2-8" value="" style="group;shadow=0;labelBackgroundColor=none;strokeColor=#82b366;fillColor=#09555b;fontColor=#eee8e8;" parent="1" vertex="1" connectable="0">
          <mxGeometry x="10" y="100" width="68" height="90" as="geometry" />
        </mxCell>
        <mxCell id="LyLzA6kwfRRB6KR0NoK2-3" value="" style="sketch=0;pointerEvents=1;shadow=1;dashed=0;html=1;strokeColor=none;labelPosition=center;verticalLabelPosition=bottom;verticalAlign=top;outlineConnect=0;align=center;shape=mxgraph.office.users.users;fillColor=#BAC8D3;movable=1;resizable=1;rotatable=1;deletable=1;editable=1;locked=0;connectable=1;labelBackgroundColor=none;fontColor=#EEEEEE;" parent="LyLzA6kwfRRB6KR0NoK2-8" vertex="1">
          <mxGeometry x="8.5" width="42.5" height="50" as="geometry" />
        </mxCell>
        <mxCell id="LyLzA6kwfRRB6KR0NoK2-6" value="&lt;h4&gt;&lt;font face=&quot;Tahoma&quot;&gt;Users From Internet&lt;/font&gt;&lt;/h4&gt;" style="text;strokeColor=none;align=center;fillColor=none;html=1;verticalAlign=middle;whiteSpace=wrap;rounded=0;movable=1;resizable=1;rotatable=1;deletable=1;editable=1;locked=0;connectable=1;labelBackgroundColor=none;fontColor=#EEEEEE;" parent="LyLzA6kwfRRB6KR0NoK2-8" vertex="1">
          <mxGeometry y="60.00000000000001" width="68" height="30.000000000000004" as="geometry" />
        </mxCell>
        <mxCell id="LyLzA6kwfRRB6KR0NoK2-7" style="edgeStyle=orthogonalEdgeStyle;rounded=0;orthogonalLoop=1;jettySize=auto;html=1;exitX=0.5;exitY=1;exitDx=0;exitDy=0;labelBackgroundColor=none;strokeColor=#0B4D6A;fontColor=default;" parent="LyLzA6kwfRRB6KR0NoK2-8" source="LyLzA6kwfRRB6KR0NoK2-6" target="LyLzA6kwfRRB6KR0NoK2-6" edge="1">
          <mxGeometry relative="1" as="geometry" />
        </mxCell>
        <mxCell id="LyLzA6kwfRRB6KR0NoK2-21" style="edgeStyle=orthogonalEdgeStyle;rounded=0;orthogonalLoop=1;jettySize=auto;html=1;entryX=0;entryY=0.5;entryDx=0;entryDy=0;entryPerimeter=0;strokeColor=#FFFF33;fontColor=default;dashed=1;dashPattern=1 1;labelBackgroundColor=none;" parent="1" source="LyLzA6kwfRRB6KR0NoK2-3" target="LyLzA6kwfRRB6KR0NoK2-16" edge="1">
          <mxGeometry relative="1" as="geometry" />
        </mxCell>
        <mxCell id="LyLzA6kwfRRB6KR0NoK2-121" value="" style="endArrow=none;dashed=1;html=1;dashPattern=1 3;strokeWidth=2;rounded=0;strokeColor=#0B4D6A;" parent="1" edge="1">
          <mxGeometry width="50" height="50" relative="1" as="geometry">
            <mxPoint x="590" y="300" as="sourcePoint" />
            <mxPoint x="640" y="250" as="targetPoint" />
          </mxGeometry>
        </mxCell>
        <mxCell id="LyLzA6kwfRRB6KR0NoK2-123" value="" style="curved=1;endArrow=classic;html=1;rounded=0;strokeColor=#0B4D6A;" parent="1" edge="1">
          <mxGeometry width="50" height="50" relative="1" as="geometry">
            <mxPoint x="590" y="300" as="sourcePoint" />
            <mxPoint x="640" y="250" as="targetPoint" />
            <Array as="points">
              <mxPoint x="640" y="300" />
              <mxPoint x="590" y="250" />
            </Array>
          </mxGeometry>
        </mxCell>
      </root>
    </mxGraphModel>
  </diagram>
</mxfile>
